<svg xmlns="http://www.w3.org/2000/svg" width="752" height="752" viewBox="0 0 752 752">
<title>Abstract symbol</title>
<desc>Transparent vector symbol, flat colors.</desc>
<path d="M 241.00 483.00 L 241.00 485.00 L 243.00 489.00 L 245.00 491.00 L 247.00 496.00 L 249.00 498.00 L 250.00 501.00 L 252.00 503.00 L 252.00 504.00 L 254.00 506.00 L 258.00 513.00 L 261.00 516.00 L 263.00 520.00 L 267.00 524.00 L 267.00 525.00 L 271.00 529.00 L 271.00 530.00 L 277.00 536.00 L 277.00 537.00 L 302.00 562.00 L 303.00 562.00 L 310.00 569.00 L 313.00 569.00 L 315.00 567.00 L 316.00 567.00 L 318.00 565.00 L 319.00 565.00 L 321.00 563.00 L 328.00 559.00 L 332.00 555.00 L 333.00 555.00 L 336.00 552.00 L 337.00 552.00 L 342.00 547.00 L 342.00 546.00 L 338.00 542.00 L 337.00 542.00 L 330.00 535.00 L 329.00 535.00 L 302.00 508.00 L 302.00 507.00 L 288.00 492.00 L 288.00 491.00 L 284.00 487.00 L 284.00 486.00 L 280.00 482.00 L 280.00 481.00 L 271.00 470.00 L 256.00 478.00 L 254.00 478.00 L 246.00 482.00 Z M 686.00 428.00 L 673.00 464.00 L 657.00 494.00 L 643.00 514.00 L 614.00 545.00 L 570.00 578.00 L 540.00 592.00 L 516.00 599.00 L 494.00 602.00 L 469.00 602.00 L 423.00 593.00 L 378.00 573.00 L 352.00 601.00 L 404.00 625.00 L 440.00 634.00 L 466.00 637.00 L 498.00 636.00 L 525.00 631.00 L 568.00 614.00 L 590.00 600.00 L 608.00 585.00 L 629.00 562.00 L 647.00 536.00 L 672.00 482.00 L 682.00 450.00 Z M 59.00 398.00 L 66.00 474.00 L 79.00 518.00 L 99.00 558.00 L 119.00 585.00 L 143.00 607.00 L 174.00 625.00 L 206.00 635.00 L 261.00 635.00 L 310.00 617.00 L 346.00 591.00 L 427.00 506.00 L 462.00 485.00 L 495.00 476.00 L 475.00 467.00 L 430.00 486.00 L 403.00 505.00 L 339.00 563.00 L 302.00 586.00 L 259.00 599.00 L 218.00 598.00 L 196.00 592.00 L 163.00 576.00 L 143.00 561.00 L 114.00 530.00 L 80.00 471.00 L 66.00 431.00 Z M 567.00 337.00 L 566.00 338.00 L 563.00 338.00 L 550.00 345.00 L 540.00 356.00 L 536.00 364.00 L 536.00 366.00 L 535.00 367.00 L 535.00 371.00 L 534.00 372.00 L 534.00 388.00 L 535.00 389.00 L 536.00 395.00 L 541.00 405.00 L 552.00 416.00 L 555.00 417.00 L 559.00 420.00 L 561.00 420.00 L 562.00 421.00 L 564.00 421.00 L 568.00 423.00 L 585.00 423.00 L 586.00 422.00 L 592.00 421.00 L 598.00 418.00 L 603.00 414.00 L 604.00 414.00 L 609.00 409.00 L 609.00 408.00 L 614.00 402.00 L 617.00 396.00 L 618.00 390.00 L 619.00 389.00 L 619.00 371.00 L 618.00 370.00 L 616.00 362.00 L 613.00 356.00 L 610.00 353.00 L 610.00 352.00 L 600.00 343.00 L 592.00 339.00 L 590.00 339.00 L 586.00 337.00 L 582.00 337.00 L 581.00 336.00 L 573.00 336.00 L 572.00 337.00 Z M 179.00 336.00 L 171.00 336.00 L 170.00 337.00 L 164.00 337.00 L 163.00 338.00 L 158.00 339.00 L 154.00 341.00 L 149.00 345.00 L 148.00 345.00 L 138.00 356.00 L 135.00 362.00 L 135.00 364.00 L 133.00 368.00 L 133.00 371.00 L 132.00 372.00 L 132.00 388.00 L 133.00 389.00 L 134.00 395.00 L 139.00 405.00 L 146.00 413.00 L 147.00 413.00 L 153.00 418.00 L 159.00 421.00 L 161.00 421.00 L 162.00 422.00 L 165.00 422.00 L 166.00 423.00 L 172.00 423.00 L 173.00 424.00 L 174.00 423.00 L 183.00 423.00 L 184.00 422.00 L 187.00 422.00 L 190.00 420.00 L 194.00 419.00 L 196.00 417.00 L 199.00 416.00 L 203.00 412.00 L 204.00 412.00 L 210.00 405.00 L 215.00 396.00 L 216.00 390.00 L 217.00 389.00 L 217.00 382.00 L 218.00 381.00 L 218.00 378.00 L 217.00 377.00 L 217.00 371.00 L 216.00 370.00 L 215.00 364.00 L 211.00 356.00 L 208.00 353.00 L 208.00 352.00 L 201.00 345.00 L 200.00 345.00 L 195.00 341.00 L 191.00 340.00 L 185.00 337.00 L 180.00 337.00 Z" fill="#8A9B76" fill-rule="evenodd"/>
<path d="M 227.00 658.00 L 255.00 676.00 L 294.00 693.00 L 333.00 703.00 L 365.00 707.00 L 398.00 707.00 L 440.00 701.00 L 473.00 691.00 L 515.00 672.00 L 482.00 686.00 L 450.00 695.00 L 410.00 701.00 L 370.00 702.00 L 340.00 699.00 L 302.00 691.00 L 251.00 672.00 Z M 391.00 50.00 L 423.00 53.00 L 463.00 64.00 L 501.00 80.00 L 536.00 101.00 L 575.00 133.00 L 600.00 160.00 L 626.00 196.00 L 649.00 238.00 L 664.00 278.00 L 673.00 315.00 L 678.00 353.00 L 677.00 401.00 L 667.00 451.00 L 657.00 479.00 L 639.00 514.00 L 613.00 546.00 L 633.00 527.00 L 657.00 495.00 L 679.00 451.00 L 689.00 419.00 L 693.00 384.00 L 690.00 319.00 L 681.00 278.00 L 665.00 234.00 L 645.00 196.00 L 618.00 158.00 L 591.00 129.00 L 554.00 99.00 L 513.00 76.00 L 479.00 63.00 L 436.00 53.00 Z" fill="#C59B4A" fill-rule="evenodd"/>
<path d="M 366.00 337.00 L 352.00 316.00 L 343.00 306.00 L 307.00 363.00 L 274.00 407.00 L 247.00 434.00 L 232.00 445.00 L 219.00 452.00 L 197.00 458.00 L 173.00 457.00 L 163.00 454.00 L 149.00 446.00 L 134.00 430.00 L 129.00 419.00 L 133.00 432.00 L 140.00 445.00 L 149.00 456.00 L 159.00 464.00 L 178.00 473.00 L 199.00 477.00 L 215.00 477.00 L 233.00 474.00 L 251.00 468.00 L 268.00 459.00 L 282.00 449.00 L 306.00 426.00 L 335.00 388.00 Z M 168.00 293.00 L 192.00 266.00 L 205.00 257.00 L 229.00 247.00 L 265.00 244.00 L 292.00 251.00 L 306.00 258.00 L 331.00 276.00 L 353.00 299.00 L 412.00 387.00 L 441.00 423.00 L 475.00 453.00 L 518.00 472.00 L 550.00 475.00 L 583.00 466.00 L 604.00 449.00 L 619.00 417.00 L 609.00 432.00 L 596.00 444.00 L 569.00 456.00 L 537.00 456.00 L 509.00 445.00 L 488.00 429.00 L 464.00 402.00 L 407.00 306.00 L 382.00 272.00 L 346.00 242.00 L 312.00 227.00 L 292.00 223.00 L 264.00 223.00 L 226.00 234.00 L 192.00 258.00 Z M 382.00 256.00 L 394.00 268.00 L 404.00 281.00 L 428.00 259.00 L 442.00 250.00 L 458.00 243.00 L 474.00 239.00 L 484.00 239.00 L 485.00 238.00 L 508.00 240.00 L 522.00 244.00 L 534.00 249.00 L 550.00 259.00 L 568.00 275.00 L 579.00 290.00 L 575.00 282.00 L 566.00 269.00 L 544.00 247.00 L 531.00 238.00 L 515.00 230.00 L 501.00 225.00 L 488.00 222.00 L 482.00 222.00 L 481.00 221.00 L 453.00 221.00 L 452.00 222.00 L 437.00 224.00 L 420.00 230.00 L 410.00 235.00 L 396.00 244.00 Z M 368.00 104.00 L 367.00 105.00 L 364.00 105.00 L 363.00 106.00 L 358.00 107.00 L 350.00 111.00 L 340.00 120.00 L 340.00 121.00 L 335.00 127.00 L 333.00 131.00 L 331.00 139.00 L 330.00 140.00 L 330.00 146.00 L 329.00 147.00 L 329.00 156.00 L 330.00 157.00 L 330.00 162.00 L 331.00 163.00 L 333.00 171.00 L 336.00 177.00 L 347.00 189.00 L 348.00 189.00 L 350.00 191.00 L 357.00 195.00 L 359.00 195.00 L 363.00 197.00 L 366.00 197.00 L 367.00 198.00 L 384.00 198.00 L 385.00 197.00 L 388.00 197.00 L 389.00 196.00 L 394.00 195.00 L 400.00 192.00 L 406.00 187.00 L 407.00 187.00 L 415.00 178.00 L 420.00 169.00 L 420.00 167.00 L 422.00 163.00 L 422.00 160.00 L 423.00 159.00 L 423.00 143.00 L 422.00 142.00 L 422.00 138.00 L 421.00 137.00 L 421.00 135.00 L 419.00 132.00 L 418.00 128.00 L 416.00 126.00 L 414.00 122.00 L 405.00 113.00 L 404.00 113.00 L 399.00 109.00 L 395.00 108.00 L 389.00 105.00 L 385.00 105.00 L 384.00 104.00 Z M 366.00 46.00 L 336.00 48.00 L 300.00 55.00 L 262.00 68.00 L 230.00 84.00 L 178.00 122.00 L 146.00 155.00 L 118.00 192.00 L 102.00 219.00 L 81.00 266.00 L 71.00 299.00 L 64.00 341.00 L 64.00 383.00 L 68.00 410.00 L 89.00 471.00 L 77.00 416.00 L 78.00 345.00 L 87.00 303.00 L 98.00 270.00 L 113.00 236.00 L 131.00 205.00 L 172.00 151.00 L 203.00 120.00 L 232.00 97.00 L 266.00 76.00 L 299.00 61.00 L 331.00 51.00 Z" fill="#0F3A29" fill-rule="evenodd"/>
</svg>